<?xml version="1.0" encoding="UTF-8"?>
<svg xmlns="http://www.w3.org/2000/svg" xmlns:xlink="http://www.w3.org/1999/xlink" viewBox="0 0 327.84 1064.64">
  <defs>
    <style>
      .cls-1 {
        isolation: isolate;
      }

      .cls-2 {
        mix-blend-mode: hard-light;
      }

      .cls-3 {
        stroke-width: .5px;
      }

      .cls-3, .cls-4 {
        fill: none;
        stroke: #fff;
        stroke-miterlimit: 10;
      }

      .cls-4 {
        stroke-width: .25px;
      }

      .cls-5 {
        mix-blend-mode: multiply;
      }
    </style>
  </defs>
  <g class="cls-1">
    <g id="Layer_2" data-name="Layer 2">
      <image class="cls-2" width="4000" height="5000" transform="translate(-157.18 -25.19) scale(.22)" xlink:href="../../DesignStudio1Project3/starrybg.png"/>
      <image class="cls-5" width="4000" height="5000" transform="translate(-576.95 -59.96) scale(.24)" xlink:href="../../DesignStudio1Project3/starrybghalftone.png"/>
      <polyline class="cls-4" points="139.35 188.78 0 261.3 19.35 218.65"/>
      <polyline class="cls-4" points="0 261.3 21.76 301 21.76 261.3"/>
      <polyline class="cls-4" points="97.16 166.15 75.09 222.23 116.13 147.57 0 261.3 63.44 261.3 16.6 252.67"/>
      <polyline class="cls-4" points="79.9 183.05 75.09 222.23 35.16 226.87 46.14 201.03"/>
      <polyline class="cls-4" points="105.39 206.46 100.89 175.3 126.3 152.78 127.62 127.9 172.09 131.67 139.35 119.23"/>
      <polyline class="cls-4" points="116.13 147.57 126.3 152.78 118.9 198.83 100.89 175.3"/>
      <polyline class="cls-4" points="162.17 112.87 173.07 132.03 150.61 114.89 156.5 125.75"/>
      <polyline class="cls-4" points="172.48 111.83 169.05 123.53 190.42 104.5 187.61 113.98 195.04 114.17"/>
      <polyline class="cls-4" points="174.96 128.91 187.61 113.98 190.78 122.04 192.32 114.1"/>
      <polyline class="cls-4" points="174.96 118.33 187.61 113.98 185.29 124.44"/>
      <polyline class="cls-4" points="170.47 126.85 187.61 113.98 175.09 111.04"/>
      <polyline class="cls-4" points="12.44 284.01 0 321.3 59.26 266 97.61 222.96 117.04 204.96 139.35 188.78 170.91 177.04 204.3 166.61 211.09 154.35 226.48 135.3 219.43 116 214.9 109.74"/>
      <polyline class="cls-4" points="219.3 92.72 214.55 92.7 213.83 91.93 207.08 84.21 207.08 82.15 207.37 80.65 207.75 80.22"/>
      <polyline class="cls-4" points="231.38 124.44 232.67 117.89 232.67 112.87 233.07 104.78 234.11 96.11 234.37 88.8 233.98 82.93 233.46 80.85 233.78 71.33 233.52 67.8 232.87 65.85 231.38 66.17 230.46 66.96 226.22 67.48 222.17 71.33 220.15 75.83 218.72 84.37 218.72 89.2 218.44 91.68"/>
      <polyline class="cls-4" points="233.53 78.57 231.3 76.61 230.72 73.41 229.87 69.17 229.87 67.03"/>
      <polyline class="cls-4" points="205.09 104.87 203.52 107 195.04 104.87 193.28 101.91 193.74 100.28 197 101.1 203.46 104.2 207.08 105.7 211.93 107.98 214.39 109.43 210.6 105.73 201.3 96.92 198.57 91.15 199.54 84.99 201.6 81.86 206.68 80 207.75 80.22 208.38 79.58 219.3 92.72 223.22 98.29 224.93 102.96 226.48 107.2 231.92 126.37 231.43 128.91 228.7 136.15 215.92 148.37"/>
      <polyline class="cls-4" points="199.87 115.61 205.09 117.04 195.04 126.85 182.52 132.04 175.87 133.87 173.39 131.78 174.96 128.91 180.17 125.91 190.61 122.91 197.78 119.13 199.87 115.61 195.04 114.17 192.17 111.17 191.65 107.39 192.7 102.96 191.78 103.61 188.65 104.52 183.43 106.48 175.09 111.04 172.48 111.83 162.17 112.87 150.7 114.43 143 117.17 132.57 123.04 127.22 127.87 116.13 147.57 106.61 156.96 89 170.52 53 196.09 19.35 218.65 -11.2 231.63 0 321.3 -14.3 334.09"/>
      <line class="cls-4" x1="205.09" y1="117.04" x2="209.13" y2="117.04"/>
      <polyline class="cls-4" points="206.13 126.3 202.09 131 197.78 131 192.32 132.71"/>
      <polyline class="cls-4" points="125.07 174.7 152 147.57 139.35 166.35 144.61 186.82"/>
      <polyline class="cls-4" points="165.53 178.65 147.02 154.95 152.52 172.22 165.53 178.65 170.93 146.17"/>
      <polyline class="cls-4" points="136.2 190.42 123.2 172.07 125.65 188.78 136.2 191.07"/>
      <polyline class="cls-4" points="110.45 187.79 126.3 153.57 133.09 148.37 141.57 147.57 163.92 147.57 175.74 145.22 179.91 145.87 182.65 146 187.61 141.83 193.28 139.09 197.2 138.23 200.13 137.78 208.77 128.91 205.09 119.91 205.74 117.04 201.36 125.43 207.11 124.85 196.8 128.91 191.76 128.21"/>
      <line class="cls-4" x1="103.45" y1="178.65" x2="126.3" y2="153.57"/>
      <line class="cls-4" x1="142.35" y1="139.09" x2="126.58" y2="147.57"/>
      <polyline class="cls-4" points="133.09 148.37 142.35 139.09 147.27 133.7 128.28 128.1 142.35 139.09 142.35 129.15 156.96 143.33 161.39 139.09 169.86 131.48"/>
      <polyline class="cls-4" points="145.47 135.66 154.54 143.33 136.2 145.25 153.52 139.99"/>
      <polyline class="cls-4" points="226.48 135.3 211.2 126.3 204.3 166.61 219.82 117.04 208.77 128.91"/>
      <polyline class="cls-4" points="182.05 173.56 173.67 146.17 204.3 166.61 168.35 161.67 174.96 175.78"/>
      <polyline class="cls-4" points="213.92 100.25 226.48 107.2 226.4 126.3 229.77 133.31 231.38 124.44"/>
      <polyline class="cls-4" points="207.08 84.21 206.13 90.57 198.81 89.6 223.22 98.29 219.82 117.04"/>
      <polyline class="cls-4" points="208.77 104 223.22 98.29 200.82 95.89"/>
      <polyline class="cls-4" points="201.6 81.86 213.19 94.72 199.22 93.7"/>
      <polyline class="cls-4" points="222.17 71.33 234.21 86.47 219.3 81.86 232.95 107.18 221.51 72.8"/>
      <polyline class="cls-4" points="214.39 109.43 197.98 109.43 202.03 116.2"/>
      <polyline class="cls-4" points="216.59 112.07 207.11 124.85 223.39 126.85"/>
      <line class="cls-4" x1="234.21" y1="93.16" x2="227.92" y2="92.06"/>
      <polyline class="cls-4" points="226.22 67.48 227.93 78.57 219.3 80.87"/>
      <polyline class="cls-4" points="192.32 139.55 205.82 157.77 177.71 159.38 192.32 170.35"/>
      <polygon class="cls-4" points="243.04 89.25 234.37 91.48 242.26 104.5 243.04 89.25"/>
      <polyline class="cls-4" points="247.85 86.88 243.04 89.25 246.37 84.89"/>
      <polyline class="cls-4" points="246.07 96.39 243.04 89.25 248.2 91.28"/>
      <polyline class="cls-4" points="232.83 109.74 238.71 90.37 239.56 107.18"/>
      <line class="cls-4" x1="234.37" y1="112.07" x2="243.92" y2="91.31"/>
      <polyline class="cls-4" points="234.02 96.88 243.04 83.83 243.04 89.25 239.13 84.7 240.43 89.92"/>
      <polyline class="cls-4" points="224.93 102.96 234.31 90.35 229.9 119.23"/>
      <polyline class="cls-4" points="218.72 89.2 234.35 88.47 239.13 84.7 242.33 83.72 244.41 84.04 246.37 84.89 247.67 86.09 248.2 88.47 248.2 91.28 245.33 98.2 242.26 104.5 236.26 110.46 232.67 113.52"/>
      <line class="cls-4" x1="221.53" y1="95.89" x2="233.98" y2="82.93"/>
      <polyline class="cls-4" points="209.58 87.07 210.28 81.86 213.83 91.93 216.9 89.83 216.9 92.61"/>
      <polyline class="cls-4" points="199.78 106.06 197 101.1 196.25 105.17 203.46 104.2 193.28 101.91 192.66 103.1"/>
      <polyline class="cls-4" points="157.87 147.57 159.43 141.83 166.88 146.98"/>
      <polyline class="cls-4" points="233.52 67.8 230.72 73.41 230.46 66.96 233.62 76.09 231.3 76.61"/>
      <polyline class="cls-4" points="123.88 167.87 141.57 147.57 132.72 185.51 118.9 198.83 97.61 222.96 93.64 212.57 63.44 261.3 66.17 226.87"/>
      <polyline class="cls-4" points="200.82 121.22 202.09 131 162.38 143.86 187.61 129.94"/>
      <polygon class="cls-4" points="87.17 854.26 85.61 856.61 85.61 859.09 86.91 862.22 87.17 865.35 86 868.15 84.76 871.93 85.54 873.24 87.17 874.02 90.96 873.76 92.65 871.87 92.26 869.78 90.57 866.52 90.24 862.54 90.83 859.09 89.98 855.76 88.71 854.26 87.17 854.26"/>
      <polygon class="cls-4" points="85.15 875.98 84.17 876.83 84.17 878.46 86.2 880.02 88.71 882.63 90.24 886.35 91.15 890.26 91.48 897.57 91.48 901.22 92.98 903.7 93.3 904.22 94.87 903.57 97.28 901.41 98.65 901.22 101.39 901.41 101.39 898.22 99.37 895.09 98.26 893.91 96.63 890.52 94.61 884.85 93.37 877.8 91.22 874.67 89.65 874.41 88.41 875.26 86.65 876.24 85.15 875.98"/>
      <polygon class="cls-4" points="131.46 941.26 126.76 940.61 124.48 938.91 120.89 934.8 113.59 923.2 109.15 918.83 102.72 914.72 101.39 913.87 96.17 910.87 94.15 905.91 94.15 904.22 95.65 903.5 97.09 904.22 99.04 903.5 101.65 904.22 102.19 904.54 103.28 905.2 107.98 908.91 116.78 915.76 121.48 919.15 126.3 922.38 130.61 925.35 133.67 928.41 134.65 931.67 134.26 933.43 132.5 935.52 132.04 938.13 132.3 941.26 131.46 941.26"/>
      <polygon class="cls-4" points="101.39 901.41 101.82 903.5 101.82 903.94 99.13 903.26 97.17 903.94 95.43 903.06 97.28 901.41 99.99 901.31 101.39 901.41"/>
      <polygon class="cls-4" points="105.7 832.74 104.26 834.43 103.97 835.76 103.87 837.96 104.16 839.94 103.7 842.36 102.4 846.61 101.6 849.33 102.23 850.82 105.09 852.92 107.15 854 107.9 852.92 108.1 849.84 107.59 845.81 107.54 842.65 108.1 839.28 109.08 837.27 109.47 835.46 108.98 833.92 107.73 833.24 106.19 832.74 105.7 832.74"/>
      <polygon class="cls-4" points="102.43 851.72 100.8 852.5 100.8 854.26 102.7 857.46 104.59 861.96 105.11 866.98 104.59 871.67 103.48 878.2 101.13 881 103.22 882.7 105.11 884 107.72 883.67 109.02 884.39 110.33 884.39 111.17 883.09 110.39 876.24 108.96 868.05 108.37 859.02 107.75 856.46 107.33 854.72 105.53 853.15 102.43 851.72"/>
      <polyline class="cls-4" points="105.69 883.93 105.24 886.8 104.72 887.65 106.41 890.07 111.17 894.76 115.41 898.74 117.57 902.2 119.26 907.15 120.89 909.96 122.72 915.89 123.16 920.28"/>
      <polyline class="cls-4" points="203.59 956.13 208.93 959.26 212.91 961.48 217.61 964.09 220.15 964.8 222.57 964.22 224.65 962.65 225.63 960.76 225.96 959.2 227.59 957.57 228.76 956.13 228.76 953.59 228.04 952.15 226.02 950.59 223.74 950.13 219.37 949.61 213.57 948.7 207.63 947.33 201.3 944.72 194.98 941.07 191.78 938.33 189.76 935.26 186.96 934.02 184.8 934.02 181.8 934.8 179.91 936.7 177.7 939.63 176.85 942.89 176.91 945.7 179.13 948.83 182.13 950.52 186.5 951.11 192.17 952.41 196.8 953.46 203.59 956.13 201.3 956.13 197.85 956.13 189.83 955.48 186.24 953.65 182.98 953.65 179.26 952.61 175.74 952.35 167.52 951.83 161.91 951.3 158.13 950.39 154.74 950 150.43 949.41 147.89 948.24 144.37 946.8 138.96 945.17 134.65 944.07"/>
      <polyline class="cls-4" points="222.57 964.22 222.89 966.04 224.52 968 225.89 969.24 227.59 969.63 228.76 970.09 230.39 970.48 232.15 970.48 234.17 969.89 235.8 969.89 237.37 969.43 238.93 967.67 240.7 966.7 242.07 964.22 241.28 962.65 240.04 959.91 239.39 957.96 238.74 955.54 238.15 953.39 238.09 951.76 238.8 950.65 239.78 950.65 241.09 951.17 242.52 952.8 243.37 954.37 243.7 954.83 244.8 953.33 245.33 950.65 244.93 948.04 243.43 946.61 241.28 946.28 238.8 946.28 236.98 947.39 235.74 946.22 235.09 944 234.63 940.74 235.67 938.13 237.37 936.17 237.37 934.35 236.33 933.57 234.37 932.59 232.22 931.61 229.41 930.83 227.85 930.83 226.02 931.54 224.98 932.72 224.13 934.54 222.89 934.02 222.11 933.43 219.7 931.87 218.46 931.87 216.63 932.85 214.93 936.3 214.93 940.28 214.93 943.35 216.94 945.42"/>
      <polygon class="cls-4" points="194.52 856.48 191.65 857.78 189.14 858.96 187.35 859.48 184.35 860.78 180.42 860.8 180.32 861.58 181.09 863.78 182.91 865.74 183.96 864.96 184.61 863.52 189.43 862.74 193.09 861.11 195.43 860.26 196.07 858.24 196.07 857.16 195.16 856.36 194.52 856.48"/>
      <polyline class="cls-4" points="180.32 861.05 179.29 860.8 178.17 861.48 176.7 863.15 174.4 864.86 173.77 864.52 171.22 864.86 169.76 865.74 169.02 867.11 166.33 871.61 165.06 872.83 164.33 874.64 164.82 876.11 165.7 877.48 167.07 878.26 169.36 878.26 170.93 877.43 171.86 876.6 172.12 874.74 172.59 872.24 173.47 869.65 174.26 868.58 175.04 867.84 176.36 867.79 178.12 867.84 179.91 867.6 181.45 866.86 182.28 866.37 182.91 865.74"/>
      <polyline class="cls-4" points="169.83 878.01 170.88 878.99 171.27 881.1 172.15 884.77 172.49 887.55 173.62 891.66 174.21 895.33 174.6 899.73 174.94 902.82 174.35 904.18 172.15 905.55 167.99 908.2 166.38 908.59 165.4 908.15 165.4 906.53 166.48 903.84 167.31 900.47 168.19 898.17 168.19 894.3 167.26 888.58 166.23 884.91 165.65 882.32 164.33 880.71 162.81 879.29 162.47 877.28 163.25 875.82 164.5 875.17"/>
      <polygon class="cls-4" points="270.08 942.83 272.13 944.2 276.04 949.41 277.22 951.83 284.36 955.93 288.89 959.48 293.36 962.98 305.49 973.25 315.47 982.64 324.66 991.45 327.84 994.48 327.84 1009.54 321.63 1004.65 317.62 1001.03 310.28 993.7 305.88 989.1 300.89 983.91 294.04 978.14 288.37 974.23 276.92 964.8 270.08 961.12 266.07 962.1 263.62 961.9 261.17 959.36 261.17 957.01 264.01 954.76 265.67 950.65 266.07 948.11 265.48 945.47 263.42 943.41 264.21 942.34 266.75 942.34 270.08 942.83"/>
      <polygon class="cls-4" points="255.7 957.01 253.25 958.09 252.17 959.46 251.39 961.8 250.9 964.35 249.14 966.7 246.11 969.04 244.05 971.78 242.2 973.93 239.95 975.01 237.5 976.58 235.35 976.58 233.68 976.58 232.51 979.12 232.51 981.27 234.37 982.84 236.72 984.5 239.39 985.45 241.41 986.16 245.33 988.41 249.04 990.37 255.7 993.5 259.51 996.24 265.28 1000.74 270.66 1005.14 281.13 1014.83 287.78 1020.3 292.09 1023.73 305.49 1033.41 308.82 1036.84 311.75 1039.09 317.52 1043.78 327.84 1052.1 327.84 1031.07 321.24 1026.08 315.37 1020.3 307.35 1013.95 301.87 1009.54 293.16 999.86 286.61 992.03 280.18 985.48 276.43 981.17 272.82 974.72 269.68 969.92 265.87 965.33 264.3 964.25 261.96 962.59 261.17 959.36 259.12 957.01 255.7 957.01"/>
      <polygon class="cls-4" points="160.8 847.15 161.85 846.3 163.09 846.3 164.65 846.04 165.63 845.13 166.41 844.22 167.72 843.3 168.24 842.72 169.28 841.41 170.78 840.5 171.7 840.5 172.35 840.63 173.13 841.41 173.13 842.52 172.8 843.89 171.76 844.93 170.52 846.04 169.61 846.04 168.37 846.3 167.07 847.15 165.5 847.93 163.92 848.98 162.89 850.54 162.47 852.17 161.98 853.48 160.8 854.39 159.5 855.04 158.2 855.04 157.54 854.39 156.43 853.48 155.72 852.43 156.17 851.07 157.8 850.22 160.28 847.77 160.8 847.15"/>
      <polygon class="cls-4" points="152.98 849.04 152.46 850.09 152.07 853.93 151.61 856.8 150.3 858.11 148.61 860 146.78 862.74 145.41 864.57 144.83 866.65 142.8 868.22 140.72 868.93 138.04 869.2 135.7 870.43 135.24 872.2 136.22 873.57 137.39 874.54 139.35 875.52 141.37 876.89 142.28 875.91 143.55 874.01 144.7 871.8 146.78 868.67 148.54 865.74 151.48 861.43 153.7 858.3 155.07 856.67 155.72 853.35 154.8 849.96 153.89 849.17 152.98 849.04"/>
      <polyline class="cls-4" points="175.88 927.37 173.62 926.98 170.15 924.43 167.55 922.38 165.89 921.11 163.22 917.98 160.8 913.67 159.63 910.45 159.04 905.85 159.01 903.26 158 902.85 156.3 903.04 154.93 903.17 153.57 904.09 152.91 906.89 151.54 907.87 150.63 909.3 149.78 909.89 148.8 909.83 148.93 906.17 150.11 902.2 150.76 900.04 152.01 897.99 152.26 897.57 152.91 895.09 153.04 892.41 153.37 889.8 154.15 886.74 155.13 885.11 156.24 884.52 157.87 884.98 158.13 886.22 157.54 887.91 157.09 889.8 156.43 892.67 156.7 895.74 157.54 899 158.72 901.48 159.05 903.5 159.17 904.22 160.15 905.85 160.48 908 161.39 909.17 162.47 911 162.76 913.93 163.92 915.17 165.17 917.33 166.61 918.83 168.3 921.04 170.65 923.48 173.46 925.35 175.48 927.17 175.88 927.37 178.02 928.41 179.52 928.87 179.52 930.83 178.87 932.72 177.5 934.02 176.46 935.2 174.94 936.3 173.85 937.22 172.22 938.2 171.57 939.7 170.59 940.41 169.41 940.41 167.98 939.89 166.8 938.52 166.09 935.65 164.72 931.8 163.54 929.33 162.11 928.54 159.63 926.52 157.48 923.91 154.93 921.17 152.07 918.57 150.17 917.2 149 914.98 148.54 911.78 148.15 910.02 147.3 907.22 146.26 900.17 145.02 894.96 144.17 891.5 142.41 888.89 140.2 885.96 136.61 884 135.24 882.69 134.65 879.63 134.65 877.28 135.89 876.11 137.82 875.17 141.37 876.89 142.9 879.53 144.17 882.17 145.48 885.01 146.38 885.4 147.45 886.58 148.63 890.35 151.02 896.16 152.01 897.99"/>
      <polyline class="cls-4" points="148.8 909.83 148.63 910.54 148.97 911.69 149.58 913.06 151.14 914.51 151.95 915.58 153.03 916.78 154.98 918.81 157.43 921.48 158.9 923.09 161.24 925.39 161.93 926.51 163.22 929.15"/>
      <polyline class="cls-4" points="176.63 941.53 173.35 941.53 169.22 941.16 165.18 939.94 160.58 938.69 154.81 937.47 152.22 936.96 150.51 936.37 148.33 934.58 146.01 932.29 144.86 931.01 143.54 929.84 142 929.15 139.73 929.02"/>
      <polyline class="cls-4" points="241.74 964.8 240.17 963.43 236.13 962.39 233.52 961.54 230.13 961.22 226.74 961.22 225.06 961.87 210.37 952.87 201.97 953.01 207.08 951.08 207.63 947.33 196.71 947.91 202.49 945.21"/>
      <polyline class="cls-4" points="212.64 946.84 213.83 944.91 215.53 944.91 217.87 945.76 219.17 946.61 222.04 944.91 224 944.72 226.35 945.76 227.78 947.27"/>
      <polyline class="cls-4" points="213.57 947.91 211.74 945.76 209 942.34 206.78 941.26 205.74 941.26 203.95 940.77 202.33 939.6 201.89 938.72 201.3 938.47 200.52 939.4 200.52 940.67 200.52 942.09 199.4 942.92 198.43 943.06"/>
      <polyline class="cls-4" points="179.52 929.52 180.27 929.02 181.71 929.52 182.62 930.83 183.01 931.97 183.99 933.09 186.96 934.02"/>
      <line class="cls-4" x1="169.03" y1="940.27" x2="169.86" y2="941.22"/>
      <polyline class="cls-4" points="194.98 941.07 197.05 941.07 198.08 940.27 198.76 939.5 198.76 939.16 196.46 938.47 195.39 938.08 193.87 937.2 191.86 936.71 190.72 936.71"/>
      <polyline class="cls-4" points="198.76 939.5 199.77 939.96 200.52 941.07"/>
      <polyline class="cls-4" points="181.8 934.8 182.72 941.85 189.97 936.58 177.7 939.63"/>
      <polyline class="cls-4" points="226.02 950.59 210.37 952.87 214.93 962.6"/>
      <polyline class="cls-4" points="179.13 948.83 188.23 943.84 186.26 951.08 177.87 940.52 182.72 941.85"/>
      <polyline class="cls-4" points="207.63 958.5 196.71 947.91 186.26 951.08 192.84 946.15 191.24 937.5 188.23 943.84 194.74 948.12 184.8 934.02"/>
      <polygon class="cls-4" points="227.78 953.29 219.6 956.59 215.67 963.01 227.78 953.29"/>
      <polyline class="cls-4" points="218.13 949.41 198.76 949.9 194.84 953.01 195.78 941.53 196.71 947.91 200.05 943.99"/>
      <polyline class="cls-4" points="210.77 960.28 209.42 953.01 210.37 947.96"/>
      <polyline class="cls-4" points="227.27 951.55 215.53 956.03 213.57 948.7"/>
      <polygon class="cls-4" points="252.83 975.04 235.22 983.44 278.52 997.87 274.7 1008.88 252.83 975.04"/>
      <polygon class="cls-4" points="256.87 957.01 254.5 977.63 249.14 966.7 249.14 988.08 236.13 976.58 280.18 985.48 269.65 989.52 256.87 957.01"/>
      <polygon class="cls-4" points="282.3 987.64 281.13 1014.83 278.52 997.87 282.3 987.64"/>
      <polyline class="cls-4" points="323.59 1048.67 325.84 1039.18 312.9 1018.35 284.87 1003.48 284.13 1003.09 300.13 1029.54 327.84 1031.07 317.98 1044.15 284.36 1003.47"/>
      <polyline class="cls-4" points="291.27 997.6 287.44 1007.19 287.05 992.56 279.26 1013.09 292.66 1013.52 290.16 1022.2 294.25 1015.44 296.38 1026.83 309.05 1033.35 296.45 1003.52 288.26 1008.18"/>
      <polyline class="cls-4" points="274.87 947.84 264.01 954.76 270.53 943.13 273.99 956.03 276.24 964.43 284.36 955.93 261.17 957.01 298.77 967.56 293.65 971.59 293.6 977.83 299.44 968.13 302.39 975.04 306.91 974.58 312.92 988.8 302 985.06 316.97 984.08 321.04 995.07 311.65 995.07 327.84 1003.09"/>
      <polyline class="cls-4" points="324.66 991.45 320.11 992.56 313.33 984.32 311.63 979.03 304.41 979.8"/>
      <polyline class="cls-4" points="304.42 972.34 302.39 975.04 294.04 978.14"/>
      <polyline class="cls-4" points="299.74 982.94 302.39 975.04 302 985.06 309.62 981.01 304.41 979.8"/>
      <polyline class="cls-4" points="284.65 971.16 293.65 971.59 288.45 959.13 286.8 966.6 279.26 966.72 285.2 956.59 283.82 970.48"/>
      <line class="cls-4" x1="319.36" y1="1024.23" x2="304.41" y2="1022.36"/>
      <polyline class="cls-4" points="269.68 969.92 266.42 981.31 250.28 965.18"/>
      <polyline class="cls-4" points="259.51 996.24 269.65 989.52 232.51 980.05"/>
      <polyline class="cls-4" points="327.84 1036.45 325.84 1039.18 327.84 1047.01"/>
      <polyline class="cls-4" points="222.89 934.02 225.63 941.53 218.01 932.45 219.22 938.47 215.36 935.44"/>
      <line class="cls-4" x1="237.37" y1="934.51" x2="224.73" y2="938.37"/>
      <polyline class="cls-4" points="216.08 949.09 221.92 947.22 219.42 946.46"/>
      <polyline class="cls-4" points="213.57 945.34 218.4 947.97 216.7 945.34 212.94 947.17"/>
      <polyline class="cls-4" points="214.93 942.34 224.58 940.27 215.67 944.11 217.33 936.99 223.21 944.8 227.78 942.74 226.35 945.76"/>
      <polyline class="cls-4" points="235.3 944.72 230.47 945.03 234.65 942.49 225.82 941.07 238.07 951.51 228.76 953.82 224.13 944.91 219.99 949.68"/>
      <polyline class="cls-4" points="227.85 930.83 224.73 938.37 229.03 941.58 236.65 936.7 230.79 936.52 232.38 932.11 224.73 938.37 226.45 931.38"/>
      <polyline class="cls-4" points="233.52 961.54 224.52 968 238.93 967.67 224.65 962.65 232.15 970.48"/>
      <polyline class="cls-4" points="240.17 963.43 229.57 964.38 240.7 966.7"/>
      <line class="cls-4" x1="226.74" y1="961.22" x2="229.57" y2="964.38"/>
      <polyline class="cls-4" points="238.74 955.54 228.76 956.13 242.07 964.22 232.47 955.91"/>
      <polyline class="cls-4" points="238.09 951.76 228.76 956.13 230.47 945.03"/>
      <polyline class="cls-4" points="243.68 946.84 236.98 947.39 239.78 950.65 241.07 946.65 243.7 954.83 245.03 948.7"/>
      <polyline class="cls-4" points="146.01 932.29 150.43 949.41 152.22 936.96 157.09 944.72 134.65 930.76 137.98 929.52 139.15 929.52 140.2 928.61 140.2 926.52 137.65 922.38 135.11 916.87 132.83 912.96 131.2 911.07 129.7 910.09 128.59 909.37 125.52 903.94 123.7 900.63 122.78 898.87 121.87 896.26 120.3 893.91 117.17 888.24 115.41 886.48 113 883.8 111.13 882.69"/>
      <polyline class="cls-4" points="140.2 928.61 142.69 935.27 132.3 941.26 147.02 936.2 141.68 945.99 162.47 939.2 155.92 949.41 173.35 941.53 174.94 946.65 182.98 953.65 157.09 944.72"/>
      <polyline class="cls-4" points="94.15 904.22 116.78 915.76 98.01 911.92 101.65 904.22 103.64 915.31 116.84 919.29 125.67 921.96 123.16 937.41 117.58 916.34 113.59 923.2 107.98 908.91 95.75 909.83"/>
      <polyline class="cls-4" points="131.07 925.8 120.44 927.12 119.85 933.15"/>
      <polyline class="cls-4" points="134.65 931.67 121.35 930.58 128.43 940.84 128 923.55 131.46 941.26"/>
      <line class="cls-4" x1="120.16" y1="918.2" x2="116.09" y2="927.18"/>
      <polyline class="cls-4" points="93.93 880.99 91.43 896.45 92.65 876.76 87.09 880.95 85.35 876.49 96.2 889.32 93.3 904.22 100.62 897.03 91.26 892.65 92.98 903.7"/>
      <polyline class="cls-4" points="90.72 858.69 86.97 862.94 88.17 854.83 90.57 866.52 85.61 857.39"/>
      <polyline class="cls-4" points="90.29 856.99 87.17 865.35 90.72 873.24 85.77 868.85 91.02 868.2 85.35 872.92"/>
      <polyline class="cls-4" points="108.37 833.59 104.29 839.44 106.25 833.23 107.56 844.35 101.74 848.83 107.86 849.56 104.21 852.27"/>
      <polyline class="cls-4" points="109.17 836.87 103.29 843.71 107.43 844.33 103.45 851.72"/>
      <line class="cls-4" x1="103.94" y1="836.32" x2="106.59" y2="836.14"/>
      <polyline class="cls-4" points="107.33 854.72 104.16 855.17 100.8 852.66"/>
      <polyline class="cls-4" points="108.27 858.62 104.36 856.77 104.59 861.96"/>
      <polyline class="cls-4" points="109.32 870.1 108.27 871.39 104.64 871.18 109.84 883.93 103.35 878.84 105.21 883.79 109.93 873.62 105.09 867.11 106.45 858.07 108.77 865.12"/>
      <polyline class="cls-4" points="110.87 880.43 103.48 878.2 109.77 872.71 105.83 862.19"/>
      <polyline class="cls-4" points="101.74 855.85 104.07 855.01 103.77 852.34"/>
      <polyline class="cls-4" points="114.52 885.48 110.35 893.95 106.43 884.17 121.69 895.99 115.54 898.94 115.93 887.65 112.3 895.82"/>
      <polyline class="cls-4" points="119.23 891.97 117.87 903.09 125.16 903.29 121.84 913.03 123.82 900.86"/>
      <polyline class="cls-4" points="127.25 907 127.73 916.05 122.95 915.79 138.73 924.13 120.63 909.51"/>
      <polyline class="cls-4" points="132.83 912.96 130.81 919.95 125.46 921.81 122.8 916.68"/>
      <line class="cls-4" x1="134.43" y1="915.71" x2="131.44" y2="926.18"/>
      <line class="cls-4" x1="135.63" y1="917.99" x2="136.47" y2="929.93"/>
      <line class="cls-4" x1="140.2" y1="927.34" x2="126.15" y2="922.27"/>
      <polyline class="cls-4" points="146.78 862.74 145.38 869.92 135.8 871.7 143.07 873.83 138.04 869.2 140.21 876.11 153.7 858.3 152.23 852.27 155.47 852.42 151.61 856.8 155.23 855.85 153.67 849.49 150.01 863.59 148.08 860.8"/>
      <polyline class="cls-4" points="147.45 861.74 147.45 867.57 143.65 867.57"/>
      <line class="cls-4" x1="140.72" y1="868.93" x2="146.38" y2="869.28"/>
      <polyline class="cls-4" points="142.9 879.53 135.04 881.65 137.82 875.17 141.83 888.12 145.48 885.01 134.65 877.28 139.1 885.36 148.16 888.87 145.48 895.48 149.98 902.63 146.38 885.4 144.46 892.67 151.02 896.16 147.3 907.22"/>
      <polyline class="cls-4" points="157.93 885.26 153.32 894.06 155.72 884.8 153.57 904.09 156.67 896.64 151.02 899.98 150.28 909.55"/>
      <line class="cls-4" x1="156.59" y1="894.5" x2="150.75" y2="903.5"/>
      <polyline class="cls-4" points="159.44 908.92 150.14 913.58 165.89 921.11 162.47 927.61 161.23 914.42 149.78 909.89 156.33 920.28 156.3 903.04 152.91 906.89 160.27 924.43"/>
      <polyline class="cls-4" points="179.52 930.6 164.14 924.44 165.79 934.8 169.29 924.31 171.1 940.04"/>
      <line class="cls-4" x1="178.98" y1="932.41" x2="164.14" y2="930.58"/>
      <line class="cls-4" x1="173.17" y1="926.65" x2="167.98" y2="939.89"/>
      <line class="cls-4" x1="158.15" y1="900.28" x2="148.91" y2="907"/>
      <polyline class="cls-4" points="170.44 840.71 168.47 846.04 172.69 841.61 166.1 844.59"/>
      <polyline class="cls-4" points="168.53 842.36 170.57 845.74 171.5 840.5"/>
      <polyline class="cls-4" points="161.85 846.3 160.02 854.42 159.11 849.04 162.43 851.35 156.59 853.6 157.3 850.97 158.67 854.89 163.39 846.25 166.1 847.64 165.63 845.13 172.59 844.1"/>
      <polyline class="cls-4" points="193.63 856.88 188.87 862.83 187.71 859.48 185.37 862.97 185.91 860.31 195.03 860.41 195.43 856.87 190.94 862.07 190.77 858.37 187 863.13 182.07 860.8"/>
      <line class="cls-4" x1="181.83" y1="864.57" x2="184.12" y2="860.78"/>
      <polyline class="cls-4" points="179.29 860.8 179.52 867.47 175.84 863.98 173.67 869.15 170.06 865.74 169.67 877.54 167 870.48"/>
      <polyline class="cls-4" points="164.33 874.64 172.39 872.64 168.83 867.43"/>
      <line class="cls-4" x1="173.03" y1="864.62" x2="171.4" y2="871.03"/>
      <line class="cls-4" x1="165.5" y1="877.18" x2="169.88" y2="871.25"/>
      <polyline class="cls-4" points="170.62 878.75 167.69 890.29 167.07 878.26 163.02 877.37 172.05 885.17 166.31 885.18"/>
      <polyline class="cls-4" points="173.14 889.9 167.07 887 174.27 896.06 168.19 898.17"/>
      <polyline class="cls-4" points="173.48 891.14 167.2 900.91 172.81 904.95 172.6 896.64"/>
      <polyline class="cls-4" points="174.57 899.43 166.35 904.16 167.62 908.02 170.67 897.31"/>
      <polyline class="cls-4" points="180.93 906.14 176.83 918.7 175.47 906.45 172.49 915.56 183.24 912.67 170.27 911.39 180.11 905.51 180.72 921.51 188.1 917.15 182.37 922.27"/>
      <polyline class="cls-4" points="209.01 931.81 200.19 933.76 195.98 922.97 191.57 927.08 191.78 919.8 194.44 929.02"/>
      <polyline class="cls-4" points="203.48 928.08 195.79 929.93 215.53 935.09 210.94 932.99 207.42 930.83 203.02 927.76 199.25 925.22 195.48 922.62 193.14 920.57 190.64 918.57 188.1 917.15 186.53 915.68 184.58 914.21 183.4 911.86 182.82 910.05 182.42 908.29 181.71 906.92 180.93 906.14 180.37 905.58 178.66 905.11 177.68 905.11 175.43 906.04 173.91 907.17 172.49 907.8 170.68 909.42 170.15 911.96 171.03 913.92 173.33 916.51 176.31 918.81 179.1 920.77 182.91 922.53 186.09 923.95 188.39 925.27 191.57 927.08 197.49 931.09 201.79 935.34 205.21 937.49 207.71 939.06 212.36 941.41 214.51 941.85"/>
      <polyline class="cls-4" points="204.09 932.9 212.36 941.41 210.94 932.99 214.93 938.89 201.79 935.34"/>
      <polyline class="cls-4" points="189.61 917.99 178.23 920.15 191.57 923.48 187.79 924.92"/>
      <polyline class="cls-4" points="181.35 929.4 174.76 941.58 175.47 935.92 171.83 941.26 180.63 935.98"/>
      <line class="cls-4" x1="183.01" y1="931.97" x2="177.67" y2="936.2"/>
      <polygon class="cls-4" points="0 984.37 7.02 995.52 .89 988.87 0 988.15 0 984.37"/>
      <g>
        <path class="cls-3" d="M13.96,1095.54s4.58-17.96,10.95-20.27c.14-14.78-1.97-19.59,.69-31.41-2.66,11.82-6.63,15.26-12.84,28.67,4.77,4.81,1.2,23.01,1.2,23.01Z"/>
        <path class="cls-3" d="M-12.71,1084.39s10.45-15.32,17.22-15.3c5.18-13.84,4.85-19.08,11.39-29.27-6.54,10.19-11.45,12.07-21.87,22.55,2.83,6.15-6.74,22.03-6.74,22.03Z"/>
        <path class="cls-3" d="M-33.96,1064.78s15.06-10.82,21.42-8.49c9.6-11.23,11.08-16.27,20.72-23.61-9.63,7.34-14.89,7.43-28.26,13.71,.56,6.75-13.87,18.39-13.87,18.39Z"/>
        <path class="cls-3" d="M-47.22,1039.09s17.85-5.02,23.03-.65c12.87-7.27,15.98-11.5,27.54-15.1-11.56,3.6-16.53,1.89-31.25,3.21-1.79,6.53-19.32,12.54-19.32,12.54Z"/>
        <path class="cls-3" d="M-50.9,1010.41s18.49,1.39,21.86,7.26c14.58-2.43,18.95-5.34,31.05-4.77-12.1-.57-16.18-3.88-30.46-7.67-3.91,5.53-22.45,5.17-22.45,5.17Z"/>
        <path class="cls-3" d="M-44.54,982.21s16.9,7.63,18.06,14.3c14.53,2.7,19.63,1.46,30.81,6.14-11.17-4.67-13.88-9.18-26-17.62-5.57,3.86-22.86-2.82-22.86-2.82Z"/>
        <path class="cls-3" d="M-28.92,957.88s13.27,12.95,12.08,19.62c12.73,7.51,17.95,8.09,26.85,16.3-8.9-8.21-9.9-13.37-18.41-25.45-6.55,1.72-20.52-10.47-20.52-10.47Z"/>
        <path class="cls-3" d="M-5.93,940.36s8.04,16.71,4.64,22.56c9.39,11.41,14.1,13.74,19.65,24.5-5.56-10.76-4.73-15.95-8.59-30.22-6.74-.62-15.71-16.85-15.71-16.85Z"/>
        <path class="cls-3" d="M21.68,931.76s1.84,18.45-3.36,22.79c4.92,13.93,8.55,17.74,10.09,29.75-1.54-12.01,1.01-16.61,2.26-31.33-6.12-2.89-8.99-21.21-8.99-21.21Z"/>
        <path class="cls-3" d="M50.56,933.12s-4.58,17.96-10.95,20.27c-.14,14.78,1.97,19.59-.69,31.41,2.66-11.82,6.63-15.26,12.84-28.67-4.77-4.81-1.2-23.01-1.2-23.01Z"/>
        <path class="cls-3" d="M77.23,944.27s-10.45,15.32-17.22,15.3c-5.18,13.84-4.85,19.08-11.39,29.27,6.54-10.19,11.45-12.07,21.87-22.55-2.83-6.15,6.74-22.03,6.74-22.03Z"/>
        <path class="cls-3" d="M98.48,963.88s-15.06,10.82-21.42,8.49c-9.6,11.23-11.08,16.27-20.72,23.61,9.63-7.34,14.89-7.43,28.26-13.71-.56-6.75,13.87-18.39,13.87-18.39Z"/>
        <path class="cls-3" d="M111.74,989.57s-17.85,5.02-23.03,.65c-12.87,7.27-15.98,11.5-27.54,15.1,11.56-3.6,16.53-1.89,31.25-3.21,1.79-6.53,19.32-12.54,19.32-12.54Z"/>
        <path class="cls-3" d="M115.42,1018.25s-18.49-1.39-21.86-7.26c-14.58,2.43-18.95,5.34-31.05,4.77,12.1,.57,16.18,3.88,30.46,7.67,3.91-5.53,22.45-5.17,22.45-5.17Z"/>
        <path class="cls-3" d="M109.06,1046.45s-16.9-7.63-18.06-14.3c-14.53-2.7-19.63-1.46-30.81-6.14,11.17,4.67,13.88,9.18,26,17.62,5.57-3.86,22.86,2.82,22.86,2.82Z"/>
        <path class="cls-3" d="M93.44,1070.78s-13.27-12.95-12.08-19.62c-12.73-7.51-17.95-8.09-26.85-16.3,8.9,8.21,9.9,13.37,18.41,25.45,6.55-1.72,20.52,10.47,20.52,10.47Z"/>
        <path class="cls-3" d="M70.45,1088.31s-8.04-16.71-4.64-22.56c-9.39-11.41-14.1-13.74-19.65-24.5,5.56,10.76,4.73,15.95,8.59,30.22,6.74,.62,15.71,16.85,15.71,16.85Z"/>
        <path class="cls-3" d="M42.84,1096.9s-1.84-18.45,3.36-22.79c-4.92-13.93-8.55-17.74-10.09-29.75,1.54,12.01-1.01,16.61-2.26,31.33,6.12,2.89,8.99,21.21,8.99,21.21Z"/>
      </g>
      <g>
        <g id="_Radial_Repeat_" data-name="&amp;lt;Radial Repeat&amp;gt;">
          <g>
            <path class="cls-3" d="M148.91,46.95c.27-1.94,.61-4.17,.6-6.83-7.15,3.88-12.15-1.26-12.15-1.26,0,0,3.86,6.04-1.55,12.12,2.59,.62,4.84,.8,6.79,.98,1.22-4.28-.96-7.7-.96-7.7,0,0,2.83,2.91,7.28,2.69Z"/>
            <path class="cls-3" d="M148.91,46.95c-.44,3.2-.7,5.6,1.1,7.88-1.8-2.27-4.2-2.57-7.42-2.87-.4,1.41-1.17,2.91-2.51,4.42,6.88,1.64,11.31,.2,14.21,3.85-2.89-3.65-.48-7.64-.5-14.71-1.77,.96-3.41,1.37-4.87,1.44Z"/>
          </g>
        </g>
        <g id="_Radial_Repeat_-2" data-name="&amp;lt;Radial Repeat&amp;gt;">
          <g>
            <path class="cls-3" d="M188.32,28.06c1.05-1.65,2.28-3.54,3.38-5.97-8.12,.56-10.53-6.19-10.53-6.19,0,0,1,7.1-6.45,10.38,2.1,1.64,4.07,2.74,5.77,3.71,2.89-3.39,2.33-7.4,2.33-7.4,0,0,1.37,3.82,5.5,5.47Z"/>
            <path class="cls-3" d="M188.32,28.06c-1.73,2.73-2.97,4.81-2.27,7.62-.69-2.82-2.75-4.09-5.55-5.69-.95,1.11-2.28,2.16-4.12,2.97,5.57,4.35,10.21,4.88,11.32,9.41-1.12-4.52,2.74-7.15,5.65-13.59-2.01,.14-3.67-.17-5.03-.72Z"/>
          </g>
        </g>
        <g id="_Radial_Repeat_-3" data-name="&amp;lt;Radial Repeat&amp;gt;">
          <g>
            <path class="cls-3" d="M232.02,27.26c1.64-1.07,3.55-2.27,5.56-4.02-7.62-2.87-7.01-10.01-7.01-10.01,0,0-2.04,6.87-10.18,6.76,1.23,2.37,2.57,4.18,3.71,5.77,4.04-1.88,5.19-5.77,5.19-5.77,0,0-.34,4.04,2.73,7.26Z"/>
            <path class="cls-3" d="M232.02,27.26c-2.71,1.76-4.69,3.14-5.23,5.99,.54-2.85-.81-4.86-2.69-7.49-1.33,.62-2.97,1.02-4.98,.99,3.26,6.27,7.26,8.68,6.39,13.26,.86-4.58,5.46-5.37,10.79-10.01-1.89-.71-3.27-1.68-4.28-2.74Z"/>
          </g>
        </g>
        <g id="_Radial_Repeat_-4" data-name="&amp;lt;Radial Repeat&amp;gt;">
          <g>
            <path class="cls-3" d="M272.1,44.68c1.94-.29,4.17-.59,6.73-1.35-5.74-5.77-2.22-12.01-2.22-12.01,0,0-4.71,5.4-12.06,1.92,.14,2.66,.6,4.87,.97,6.79,4.45-.03,7.12-3.09,7.12-3.09,0,0-1.99,3.53-.53,7.74Z"/>
            <path class="cls-3" d="M272.1,44.68c-3.19,.47-5.57,.91-7.25,3.28,1.67-2.37,1.29-4.76,.67-7.93-1.47,.01-3.12-.31-4.95-1.17,.36,7.06,3,10.91,.31,14.72,2.69-3.8,7.2-2.61,13.97-4.63-1.42-1.43-2.27-2.89-2.75-4.27Z"/>
          </g>
        </g>
        <g id="_Radial_Repeat_-5" data-name="&amp;lt;Radial Repeat&amp;gt;">
          <g>
            <path class="cls-3" d="M301.33,77.18c1.88,.54,4.04,1.19,6.68,1.56-2.82-7.63,2.97-11.85,2.97-11.85,0,0-6.53,2.96-11.77-3.26-.98,2.48-1.48,4.68-1.94,6.58,4.06,1.82,7.76,.15,7.76,.15,0,0-3.28,2.39-3.7,6.82Z"/>
            <path class="cls-3" d="M301.33,77.18c-3.1-.9-5.45-1.49-7.95-.03,2.51-1.46,3.15-3.79,3.9-6.93-1.34-.6-2.72-1.58-4.01-3.12-2.6,6.57-1.81,11.17-5.83,13.52,4.03-2.34,7.63,.61,14.63,1.6-.7-1.89-.87-3.57-.73-5.03Z"/>
          </g>
        </g>
        <g id="_Radial_Repeat_-6" data-name="&amp;lt;Radial Repeat&amp;gt;">
          <g>
            <path class="cls-3" d="M314.41,118.88c1.48,1.27,3.18,2.76,5.43,4.2,.6-8.11,7.63-9.54,7.63-9.54,0,0-7.17-.02-9.35-7.86-1.92,1.85-3.29,3.64-4.5,5.18,2.94,3.34,7,3.36,7,3.36,0,0-3.97,.81-6.2,4.67Z"/>
            <path class="cls-3" d="M314.41,118.88c-2.45-2.1-4.34-3.62-7.22-3.33,2.89-.29,4.44-2.14,6.43-4.69-.97-1.1-1.82-2.56-2.36-4.5-5.1,4.9-6.29,9.41-10.92,9.87,4.64-.46,6.69,3.73,12.65,7.53,.15-2.01,.69-3.61,1.43-4.88Z"/>
          </g>
        </g>
        <g id="_Radial_Repeat_-7" data-name="&amp;lt;Radial Repeat&amp;gt;">
          <g>
            <path class="cls-3" d="M308.98,162.25c.82,1.78,1.74,3.83,3.19,6.07,3.92-7.13,10.9-5.51,10.9-5.51,0,0-6.51-3-5.24-11.03-2.52,.88-4.51,1.95-6.24,2.85,1.29,4.26,4.97,5.96,4.97,5.96,0,0-3.95-.91-7.58,1.67Z"/>
            <path class="cls-3" d="M308.98,162.25c-1.36-2.93-2.44-5.09-5.18-6.03,2.74,.94,4.93-.11,7.79-1.59-.42-1.4-.59-3.08-.27-5.07-6.67,2.34-9.63,5.95-14.03,4.44,4.41,1.51,4.53,6.17,8.38,12.11,.97-1.77,2.13-2.99,3.32-3.84Z"/>
          </g>
        </g>
        <g id="_Radial_Repeat_-8" data-name="&amp;lt;Radial Repeat&amp;gt;">
          <g>
            <path class="cls-3" d="M286.03,199.45c0,1.96,0,4.21,.38,6.85,6.53-4.86,12.21-.49,12.21-.49,0,0-4.68-5.43-.19-12.21-2.66-.24-4.91-.1-6.86,0-.6,4.41,2.05,7.49,2.05,7.49,0,0-3.21-2.47-7.59-1.63Z"/>
            <path class="cls-3" d="M286.03,199.45c-.02-3.23-.1-5.65-2.21-7.64,2.11,1.99,4.53,1.95,7.75,1.79,.2-1.45,.75-3.05,1.86-4.73-7.04-.64-11.23,1.41-14.61-1.79,3.38,3.2,1.56,7.5,2.59,14.49,1.62-1.2,3.18-1.84,4.62-2.12Z"/>
          </g>
        </g>
        <g id="_Radial_Repeat_-9" data-name="&amp;lt;Radial Repeat&amp;gt;">
          <g>
            <path class="cls-3" d="M249.71,223.75c-.8,1.78-1.76,3.83-2.5,6.39,7.96-1.71,11.31,4.63,11.31,4.63,0,0-2-6.88,4.91-11.19-2.32-1.32-4.42-2.13-6.24-2.85-2.38,3.76-1.25,7.66-1.25,7.66,0,0-1.9-3.59-6.22-4.63Z"/>
            <path class="cls-3" d="M249.71,223.75c1.33-2.94,2.25-5.18,1.16-7.87,1.09,2.69,3.31,3.65,6.31,4.85,.78-1.24,1.95-2.46,3.66-3.53-6.14-3.51-10.8-3.38-12.55-7.7,1.75,4.32-1.69,7.47-3.66,14.26,1.97-.42,3.66-.35,5.08,0Z"/>
          </g>
        </g>
      </g>
      <polyline class="cls-4" points="152 184.08 134.46 240.96 156.43 279.17"/>
      <line class="cls-4" x1="159.17" y1="283.09" x2="160.87" y2="285.96"/>
      <polyline class="cls-4" points="163.92 289.74 186.7 322.35 167.65 342.04"/>
      <polyline class="cls-4" points="163.92 346.48 143.78 372.43 165.43 348.04"/>
      <line class="cls-4" x1="168.57" y1="346.48" x2="175.31" y2="306.04"/>
      <line class="cls-4" x1="144.96" y1="373.48" x2="163.35" y2="403.74"/>
      <line class="cls-4" x1="165.43" y1="406.61" x2="170.65" y2="414.7"/>
      <polyline class="cls-4" points="175.31 420.3 186.7 322.35 175.31 447.7"/>
      <line class="cls-4" x1="172.83" y1="439.61" x2="172.3" y2="444.17"/>
      <line class="cls-4" x1="170.74" y1="453.96" x2="169.91" y2="464.52"/>
      <line class="cls-4" x1="175.31" y1="452.65" x2="172.3" y2="474.04"/>
      <polyline class="cls-4" points="170.91 177.04 182.23 215.52 163.92 236.78 175.31 212.13 176.66 175.25"/>
      <polyline class="cls-4" points="154.61 246.96 138.53 269.39 139.35 299.91 154.61 317.13"/>
      <polyline class="cls-4" points="154.61 360.24 154.15 419.39 163.35 435.83 147.58 368.16"/>
      <polyline class="cls-4" points="161.48 507.02 134.73 594.19 161.45 485.89"/>
      <polyline class="cls-4" points="158.65 696.17 134.73 594.19 161.48 738.96"/>
      <polygon class="cls-4" points="171.96 654.96 181 606.17 175.31 580.35 188.91 609.57 173.52 681.04 171.96 654.96"/>
      <polyline class="cls-4" points="163.35 565.22 144.96 513.83 161.48 480.43"/>
      <polyline class="cls-4" points="174.94 728.52 182.91 757.22 169.39 764"/>
      <polyline class="cls-4" points="157.93 769.22 134.65 782.26 156.59 828.96"/>
      <polyline class="cls-4" points="173.26 765.83 180.43 786.43 164.42 839.39"/>
      <polyline class="cls-4" points="327.84 994.48 339.43 1005.83 339.43 1022.36 327.84 1009.54"/>
      <polyline class="cls-4" points="327.84 1031.07 343.87 1042.87 343.87 1064.64 327.84 1052.1 341.78 1047.01"/>
    </g>
  </g>
</svg>